<?xml version="1.0" standalone="no"?>
<!DOCTYPE svg PUBLIC "-//W3C//DTD SVG 20010904//EN"
 "http://www.w3.org/TR/2001/REC-SVG-20010904/DTD/svg10.dtd">
<svg version="1.0" xmlns="http://www.w3.org/2000/svg"
 width="307.000000pt" height="307.000000pt" viewBox="0 0 307.000000 307.000000"
 preserveAspectRatio="xMidYMid meet">
<metadata>
Created by potrace 1.14, written by Peter Selinger 2001-2017
</metadata>
<g transform="translate(0.000000,307.000000) scale(0.100000,-0.100000)"
fill="#000000" stroke="none">
<path d="M1384 2472 c-71 -25 -147 -84 -194 -150 -97 -134 -94 -294 8 -454 17
-27 16 -28 -8 -45 -57 -39 -155 -143 -201 -213 -88 -133 -139 -303 -139 -463
0 -388 226 -552 735 -534 83 3 186 13 230 22 262 55 394 222 395 501 0 233
-82 437 -239 595 -42 42 -87 84 -101 93 -24 16 -24 17 -8 44 94 151 106 261
44 398 -33 71 -120 158 -193 192 -50 23 -74 27 -168 29 -86 3 -121 0 -161 -15z"/>
</g>
</svg>
